# xmcd CD database file
#
# Track frame offsets:
#	150
#	33480
#	82928
#	104928
#	157928
#	185468
#	232747
#	260257
#
# Disc length: 3844 seconds
#
# Revision: 0
# Processed by: cddbd v1.5PL3 Copyright (c) Steve Scherf et al.
# Submitted via: CDex 1.51
#
DISCID=590f0208
DTITLE=Ben Sluijs Quartet - Candy Century
DYEAR=2000
DGENRE=Jazz
TTITLE0=After All Things Been Said
TTITLE1=Candy Century
TTITLE2=New Life (Part I)
TTITLE3=New Life (Part II and III)
TTITLE4=Out Of The Garden
TTITLE5=Zinaïda
TTITLE6=Every Now And Then
TTITLE7=Pour Jacques
EXTD=YEAR: 2000
EXTT0=
EXTT1=
EXTT2=
EXTT3=
EXTT4=
EXTT5=
EXTT6=
EXTT7=
PLAYORDER=
